<svg width="48" height="48" viewBox="0 0 48 48" fill="none" xmlns="http://www.w3.org/2000/svg">
<g clip-path="url(#clip0_1963_3963)">
<path d="M36.4795 22.4201C36.4995 22.1201 36.5195 21.8201 36.5195 21.5201C36.5195 15.8001 31.8595 11.1401 26.1395 11.1401C23.2195 11.1401 20.4795 12.3601 18.5195 14.4801C17.2195 13.9201 15.8195 13.6201 14.3995 13.6201C8.67953 13.6201 4.01953 18.2801 4.01953 24.0001C4.01953 29.7201 8.67953 34.3801 14.3995 34.3801H17.2395V35.2801C17.2395 36.1601 17.9595 36.8801 18.8395 36.8801C19.7195 36.8801 20.4395 36.1601 20.4395 35.2801V28.3001C20.4395 27.8801 20.2795 27.5201 20.0195 27.2201L24.0395 24.1801L27.8795 27.1801C27.5995 27.4601 27.4195 27.8601 27.4195 28.3001V35.2801C27.4195 36.1601 28.1395 36.8801 29.0195 36.8801C29.8995 36.8801 30.6195 36.1601 30.6195 35.2801V29.9001H31.9195C32.5995 29.9001 33.2195 29.4601 33.4395 28.8201C33.6595 28.1801 33.4395 27.4601 32.8995 27.0401L25.0395 20.9201C24.4595 20.4801 23.6795 20.4601 23.0995 20.9201L14.9795 27.0401C14.4395 27.4601 14.1995 28.1801 14.4195 28.8201C14.6395 29.4601 15.2595 29.9201 15.9395 29.9201H17.2395V31.2001H14.3995C10.4395 31.2001 7.21953 27.9801 7.21953 24.0201C7.21953 20.0601 10.4395 16.8401 14.3995 16.8401C15.6995 16.8401 16.9995 17.2001 18.1195 17.8801C18.8395 18.3201 19.7795 18.1201 20.2595 17.4201C21.5995 15.5001 23.7995 14.3401 26.1395 14.3401C30.0995 14.3401 33.3195 17.5601 33.3195 21.5201C33.3195 22.2401 33.2195 22.9601 32.9995 23.6401C32.8395 24.1801 32.9595 24.7601 33.3395 25.1801C33.7195 25.6001 34.2795 25.7801 34.8395 25.6801C35.1395 25.6201 35.4595 25.5801 35.7795 25.5801C38.4595 25.5801 40.6395 27.7601 40.6395 30.4401C40.6395 30.6801 40.6395 30.9201 40.5795 31.1601H34.3195C33.4395 31.1601 32.7195 31.8801 32.7195 32.7601C32.7195 33.6401 33.4395 34.3601 34.3195 34.3601H41.7995C42.4595 34.3601 43.0595 33.9601 43.2995 33.3401C43.6595 32.4001 43.8395 31.4201 43.8395 30.4401C43.8395 26.2401 40.5995 22.7801 36.4795 22.4201Z" fill="rgb(251 146 60)"/>
</g>
<defs>
<clipPath id="clip0_1963_3963">
<rect width="48" height="48" fill="white"/>
</clipPath>
</defs>
</svg>
